<svg width="20" height="20" viewBox="0 0 20 20" fill="none" xmlns="http://www.w3.org/2000/svg">
<path d="M19.125 8.00001C18.9687 7.84379 18.7568 7.75602 18.5358 7.75602C18.3149 7.75602 18.1029 7.84379 17.9467 8.00001L8.87 17.1158C8.48309 17.5028 8.02376 17.8098 7.51822 18.0192C7.01268 18.2287 6.47084 18.3365 5.92363 18.3365C4.81849 18.3366 3.75859 17.8977 2.97708 17.1163C2.19558 16.3349 1.75649 15.275 1.75641 14.1699C1.75633 13.0648 2.19527 12.0049 2.97667 11.2233L11.7675 2.39668C12.2376 1.93409 12.8714 1.67599 13.5309 1.67859C14.1904 1.6812 14.8222 1.94431 15.2886 2.4106C15.755 2.87689 16.0182 3.50859 16.021 4.1681C16.0238 4.82761 15.7658 5.4615 15.3033 5.93168L6.5125 14.7583C6.35396 14.9102 6.14289 14.995 5.92333 14.995C5.70378 14.995 5.49271 14.9102 5.33417 14.7583C5.17794 14.6021 5.09018 14.3901 5.09018 14.1692C5.09018 13.9482 5.17794 13.7363 5.33417 13.58L13.1608 5.71751C13.3126 5.56034 13.3966 5.34984 13.3947 5.13134C13.3928 4.91285 13.3052 4.70384 13.1507 4.54933C12.9962 4.39482 12.7872 4.30718 12.5687 4.30528C12.3502 4.30339 12.1397 4.38738 11.9825 4.53918L4.15583 12.4017C3.92364 12.6338 3.73946 12.9094 3.61379 13.2128C3.48813 13.5161 3.42345 13.8413 3.42345 14.1696C3.42345 14.4979 3.48813 14.8231 3.61379 15.1264C3.73946 15.4297 3.92364 15.7054 4.15583 15.9375C4.63218 16.3921 5.26532 16.6457 5.92375 16.6457C6.58218 16.6457 7.21532 16.3921 7.69167 15.9375L16.4817 7.11001C17.2467 6.32526 17.6717 5.27072 17.6647 4.17482C17.6576 3.07892 17.2191 2.02991 16.4442 1.25503C15.6692 0.480152 14.6201 0.0417996 13.5242 0.034933C12.4283 0.0280663 11.3738 0.453238 10.5892 1.21835L1.79833 10.045C0.704315 11.139 0.0897026 12.6228 0.0897026 14.17C0.0897026 15.7172 0.704315 17.201 1.79833 18.295C2.89235 19.389 4.37616 20.0036 5.92333 20.0036C7.47051 20.0036 8.95432 19.389 10.0483 18.295L19.125 9.18168C19.2029 9.10424 19.2646 9.01218 19.3068 8.91078C19.349 8.80938 19.3707 8.70066 19.3707 8.59085C19.3707 8.48103 19.349 8.37231 19.3068 8.27091C19.2646 8.16952 19.2029 8.07745 19.125 8.00001Z" fill="#747476"/>
</svg>
