<svg width="16" height="16" viewBox="0 0 16 16" fill="none" xmlns="http://www.w3.org/2000/svg">
<path d="M14.6105 5.81677L2.64178 0.186117C1.96571 -0.142587 1.16895 -0.029241 0.609548 0.473484C0.0488162 0.978209 -0.145873 1.7623 0.112824 2.47038C0.124158 2.49905 3.05383 8.00169 3.05383 8.00169C3.05383 8.00169 0.178165 13.503 0.168163 13.531C-0.0898665 14.2397 0.106823 15.0225 0.667555 15.5266C1.01493 15.8379 1.45365 15.9986 1.89503 15.9986C2.16773 15.9986 2.44109 15.9373 2.69579 15.8126L14.6118 10.1866C15.4686 9.78456 16.0007 8.94713 16 8.00102C16 7.05425 15.4659 6.21682 14.6105 5.81677ZM1.35297 1.97632C1.27162 1.69963 1.44498 1.51627 1.50165 1.46427C1.56099 1.41159 1.77768 1.24824 2.06038 1.38692C2.06372 1.38826 14.0444 7.02424 14.0444 7.02424C14.2038 7.09892 14.3365 7.20426 14.4385 7.33228H4.20863L1.35297 1.97632ZM14.0438 8.9798L2.11706 14.6111C1.83369 14.7505 1.61766 14.5878 1.55832 14.5338C1.50098 14.4831 1.32763 14.2984 1.40964 14.0211L4.2113 8.66577H14.4425C14.3405 8.79578 14.2051 8.9038 14.0438 8.9798Z" fill="white"/>
</svg>
