<svg width="18" height="12" viewBox="0 0 18 12" fill="none" xmlns="http://www.w3.org/2000/svg">
<path fill-rule="evenodd" clip-rule="evenodd" d="M1.5 0C0.947715 0 0.5 0.447715 0.5 1C0.5 1.55228 0.947715 2 1.5 2H1.50833C2.06062 2 2.50833 1.55228 2.50833 1C2.50833 0.447715 2.06062 0 1.50833 0H1.5ZM5.66629 0C5.11401 0 4.66629 0.447715 4.66629 1C4.66629 1.55228 5.11401 2 5.66629 2H16.4996C17.0519 2 17.4996 1.55228 17.4996 1C17.4996 0.447715 17.0519 0 16.4996 0H5.66629ZM5.66629 5C5.11401 5 4.66629 5.44772 4.66629 6C4.66629 6.55228 5.11401 7 5.66629 7H16.4996C17.0519 7 17.4996 6.55228 17.4996 6C17.4996 5.44772 17.0519 5 16.4996 5H5.66629ZM4.66629 11C4.66629 10.4477 5.11401 10 5.66629 10H16.4996C17.0519 10 17.4996 10.4477 17.4996 11C17.4996 11.5523 17.0519 12 16.4996 12H5.66629C5.11401 12 4.66629 11.5523 4.66629 11ZM0.5 6C0.5 5.44772 0.947715 5 1.5 5H1.50833C2.06062 5 2.50833 5.44772 2.50833 6C2.50833 6.55228 2.06062 7 1.50833 7H1.5C0.947715 7 0.5 6.55228 0.5 6ZM1.5 10C0.947715 10 0.5 10.4477 0.5 11C0.5 11.5523 0.947715 12 1.5 12H1.50833C2.06062 12 2.50833 11.5523 2.50833 11C2.50833 10.4477 2.06062 10 1.50833 10H1.5Z" fill="#18181B"/>
</svg>
