<svg width="20" height="20" viewBox="0 0 20 20" fill="none" xmlns="http://www.w3.org/2000/svg"><path d="M16.6667 6.66667C18.505 6.66667 20 5.17167 20 3.33333C20 1.495 18.505 0 16.6667 0C14.8283 0 13.3333 1.495 13.3333 3.33333C13.3333 5.17167 14.8283 6.66667 16.6667 6.66667ZM16.6667 1.66667C17.5858 1.66667 18.3333 2.41417 18.3333 3.33333C18.3333 4.2525 17.5858 5 16.6667 5C15.7475 5 15 4.2525 15 3.33333C15 2.41417 15.7475 1.66667 16.6667 1.66667ZM18.2233 8.58417C18.1175 8.13583 17.6608 7.86 17.2217 7.96333C16.7733 8.06917 16.4958 8.5175 16.6008 8.965L17.4817 12.7058C17.635 13.2542 17.5242 13.8292 17.1775 14.2833C16.8283 14.7392 16.2975 15 15.7208 15H4.27918C3.72085 15 3.20085 14.7525 2.85251 14.3208C2.50501 13.89 2.37501 13.335 2.48668 12.8325L4.23168 6.35167C4.84835 3.59333 7.26668 1.6675 10.1117 1.6675C10.47 1.6675 10.8275 1.69917 11.1742 1.7625C11.6333 1.84417 12.0608 1.5425 12.1433 1.09083C12.2258 0.6375 11.9242 0.204167 11.4717 0.121667C11.0267 0.0408333 10.5692 0 10.1108 0C6.48001 0 3.39335 2.4625 2.61335 5.95333L0.868345 12.4333C0.636679 13.47 0.886679 14.5392 1.55501 15.3675C2.22085 16.1933 3.21418 16.6675 4.27918 16.6675H5.91751C6.30501 18.5667 7.98751 20.0008 10 20.0008C12.0125 20.0008 13.695 18.5667 14.0825 16.6675H15.72C16.82 16.6675 17.8342 16.1675 18.5008 15.2958C19.1683 14.4225 19.3817 13.315 19.095 12.2917L18.2233 8.585V8.58417ZM10 18.3333C8.91501 18.3333 7.99835 17.6342 7.65335 16.6667H12.3458C12.0008 17.6342 11.0842 18.3333 9.99918 18.3333H10Z" fill="#18181B"/></svg>