<svg width="18" height="18" viewBox="0 0 18 18" fill="none" xmlns="http://www.w3.org/2000/svg"><path d="M17.4306 15.8885L14.0433 12.4997C16.5779 9.11256 15.8868 4.31205 12.4997 1.77745C9.11256 -0.75714 4.31205 -0.0660387 1.77745 3.32106C-0.75714 6.70816 -0.0660387 11.5087 3.32106 14.0433C6.04186 16.0793 9.77882 16.0793 12.4997 14.0433L15.8885 17.4321C16.3143 17.8579 17.0048 17.8579 17.4306 17.4321C17.8565 17.0062 17.8565 16.3158 17.4306 15.8899L17.4306 15.8885ZM7.9386 13.3892C4.92831 13.3892 2.48801 10.9489 2.48801 7.9386C2.48801 4.92831 4.92831 2.48801 7.9386 2.48801C10.9489 2.48801 13.3892 4.92831 13.3892 7.9386C13.386 10.9475 10.9476 13.386 7.9386 13.3892Z" fill="#18181B"/></svg>